<svg enable-background="new 0 0 64 64" id="Layer_1" version="1.1" viewBox="0 0 64 64" xml:space="preserve" xmlns="http://www.w3.org/2000/svg" xmlns:xlink="http://www.w3.org/1999/xlink"><g><path d="M19,25c1.1044922,0,2-0.8955078,2-2V9h22v12H26c-1.1044922,0-2,0.8955078-2,2s0.8955078,2,2,2h19   c1.1044922,0,2-0.8955078,2-2V7c0-1.1044922-0.8955078-2-2-2H19c-1.1044922,0-2,0.8955078-2,2v16   C17,24.1044922,17.8955078,25,19,25z" fill="#00ccff"/><path d="M61,39h-5c-1.1044922,0-2,0.8955078-2,2s0.8955078,2,2,2h3v12H39V43h10c1.1044922,0,2-0.8955078,2-2V31   c0-1.1044922-0.8955078-2-2-2H15c-1.1044922,0-2,0.8955078-2,2v8H3c-1.1044922,0-2,0.8955078-2,2v16c0,1.1044922,0.8955078,2,2,2   h24c1.1044922,0,2-0.8955078,2-2V41c0-1.1044922-0.8955078-2-2-2h-5c-1.1044922,0-2,0.8955078-2,2s0.8955078,2,2,2h3v12H5V43h10   c1.1044922,0,2-0.8955078,2-2v-8h30v6H37c-1.1044922,0-2,0.8955078-2,2v16c0,1.1044922,0.8955078,2,2,2h24   c1.1044922,0,2-0.8955078,2-2V41C63,39.8955078,62.1044922,39,61,39z" fill="#00ccff"/></g></svg>